<?xml version="1.0" encoding="UTF-8"?>
<svg version="1.1" xmlns="http://www.w3.org/2000/svg" width="1024" height="1024">
<path d="M0 0 C337.92 0 675.84 0 1024 0 C1024 337.92 1024 675.84 1024 1024 C686.08 1024 348.16 1024 0 1024 C0 686.08 0 348.16 0 0 Z " fill="#FEFEFE" transform="translate(0,0)"/>
<path d="M0 0 C2.37147788 1.29299171 4.52270801 2.61772784 6.75 4.125 C22.24531048 14.19547466 38.5637263 23.06509036 55.19335938 31.11425781 C57.00006314 32.00003095 58.7902467 32.91281644 60.578125 33.8359375 C133.15548392 71.19972995 217.34932494 95.09215085 298.4921875 103.4765625 C299.58575562 103.59487427 299.58575562 103.59487427 300.70141602 103.71557617 C302.63912972 103.91927477 304.57927651 104.09947003 306.51953125 104.27734375 C310.83870794 105.1741425 313.36245219 106.49890624 317 109 C318.7441196 111.77029726 319.25049405 113.88056008 319.25396729 117.12886047 C319.25960693 117.94465576 319.26524658 118.76045105 319.27105713 119.60096741 C319.26498444 120.93217873 319.26498444 120.93217873 319.25878906 122.2902832 C319.26404602 123.70411789 319.26404602 123.70411789 319.26940918 125.14651489 C319.27824403 128.28134441 319.27235472 131.41594915 319.265625 134.55078125 C319.26697504 136.76092064 319.26891839 138.97105974 319.27142334 141.18119812 C319.27438012 145.84275098 319.27007348 150.50422749 319.26074219 155.16577148 C319.24957685 161.01720454 319.25595609 166.86845124 319.2676115 172.71987724 C319.32951445 209.21160631 318.27144766 245.4211969 314.6875 281.75 C314.57984314 282.8626825 314.47218628 283.97536499 314.36126709 285.12176514 C306.39439989 367.12713283 287.49624437 448.93889887 218 564 C217.51466797 564.61246582 217.02933594 565.22493164 216.52929688 565.85595703 C210.38971371 573.58265602 204.14044345 581.14948831 197.4140625 588.375 C195.47866947 590.47950504 193.60411187 592.61219339 191.73828125 594.77734375 C187.85975791 599.22439727 183.74495775 603.40262978 179.5625 607.5625 C178.85029297 608.27857422 178.13808594 608.99464844 177.40429688 609.73242188 C172.76647557 614.36181843 167.97144284 618.73343018 163 623 C161.8204826 624.03386621 160.64206723 625.06899129 159.46484375 626.10546875 C130.12057854 651.80077026 98.02835969 673.96421774 64 693 C63.09507812 693.50692383 62.19015625 694.01384766 61.2578125 694.53613281 C50.25241736 700.67283684 39.11168317 706.55288515 27.9375 712.375 C26.84397217 712.94605469 25.75044434 713.51710938 24.6237793 714.10546875 C21.42726082 715.76053614 18.21591373 717.38299456 15 719 C13.34315186 719.8647998 13.34315186 719.8647998 11.65283203 720.74707031 C10.55181152 721.29717773 9.45079102 721.84728516 8.31640625 722.4140625 C7.3426001 722.91115723 6.36879395 723.40825195 5.36547852 723.92041016 C-1.61752548 726.16044234 -7.79281946 725.6664476 -14.33927917 722.43510437 C-15.04587173 722.06077774 -15.75246429 721.68645111 -16.48046875 721.30078125 C-17.24760696 720.91432938 -18.01474518 720.5278775 -18.80513 720.12971497 C-21.27677374 718.87736451 -23.73203444 717.59623987 -26.1875 716.3125 C-27.90046331 715.43425515 -29.61400971 714.55714668 -31.328125 713.68115234 C-43.20608941 707.58116535 -54.94806696 701.26073511 -66.45800781 694.48876953 C-68.99910421 693.00052464 -71.55586336 691.54294948 -74.1171875 690.08984375 C-102.02793533 674.10988982 -129.44235552 655.79090803 -154 635 C-155.04251137 634.13096145 -156.08550528 633.26250152 -157.12890625 632.39453125 C-164.08573477 626.58511427 -170.8325056 620.58536792 -177.46875 614.41357422 C-179.04095271 612.96219448 -180.62780693 611.52845331 -182.21875 610.09765625 C-216.87872308 578.79771039 -243.66349169 539.59041362 -264.47070312 498.04882812 C-265.76090301 495.47666718 -267.07185412 492.916922 -268.390625 490.359375 C-300.98660248 425.80524803 -314.75292294 349.83292475 -321.125 278.5 C-321.20567719 277.61184601 -321.28635437 276.72369202 -321.36947632 275.80862427 C-321.99133016 268.87764351 -322.51859087 261.94209246 -323 255 C-323.08933807 253.72206573 -323.17867615 252.44413147 -323.27072144 251.12747192 C-325.1144913 224.08687909 -325.34486171 197.06995189 -325.31567383 169.97436523 C-325.3097629 164.02330798 -325.32715709 158.07255038 -325.3500185 152.12154293 C-325.36470157 147.48822723 -325.36563729 142.85498591 -325.36250877 138.22165108 C-325.36302031 136.0236099 -325.36822634 133.82556437 -325.37832069 131.62754631 C-325.3906212 128.58864702 -325.38394259 125.55036355 -325.37231445 122.51147461 C-325.37995819 121.61667389 -325.38760193 120.72187317 -325.39547729 119.79995728 C-325.35522161 115.05357209 -325.12549446 111.82964405 -322 108 C-317.48012348 105.06642232 -312.95243508 104.316048 -307.6953125 103.7109375 C-306.00458512 103.49480326 -304.31391393 103.27822917 -302.62329102 103.0612793 C-301.72990021 102.95036957 -300.8365094 102.83945984 -299.91604614 102.72518921 C-252.35960381 96.75833948 -205.52630194 87.04446559 -160 72 C-158.81921875 71.61231445 -157.6384375 71.22462891 -156.421875 70.82519531 C-108.46073708 54.98089082 -60.63357142 34.56147941 -17.7265625 7.73046875 C-16.90510742 7.21742187 -16.08365234 6.704375 -15.23730469 6.17578125 C-13.70731131 5.21186645 -12.18399786 4.23723212 -10.66894531 3.25 C-4.08278531 -0.92551886 -4.08278531 -0.92551886 0 0 Z " fill="#000000" transform="translate(515,30)"/>
<path d="M0 0 C1.51081059 0.77382981 3.008102 1.57451307 4.4921875 2.3984375 C5.3495752 2.87144287 6.20696289 3.34444824 7.09033203 3.83178711 C8.46874268 4.59567749 8.46874268 4.59567749 9.875 5.375 C61.98514956 33.96170699 115.69309314 55.37219729 173 71 C174.20285645 71.32919434 175.40571289 71.65838867 176.64501953 71.99755859 C194.51269308 76.82218996 212.54861955 80.6622692 230.6875 84.3125 C231.73982819 84.52550751 232.79215637 84.73851501 233.87637329 84.95797729 C247.8649511 87.77673139 261.85158287 90.14033538 276 92 C277.1760877 95.5282631 277.14151512 98.33682034 277.16113281 102.06201172 C277.16601558 102.78112071 277.17089834 103.5002297 277.17592907 104.24112988 C277.1903896 106.6373222 277.19714102 109.03345992 277.203125 111.4296875 C277.21012176 113.11885108 277.21720862 114.80801428 277.22438049 116.49717712 C277.24409602 121.95645436 277.2488211 127.41569088 277.25 132.875 C277.25044186 133.80084774 277.25088371 134.72669548 277.25133896 135.68059921 C277.25851353 164.22534168 276.87353577 192.57664553 274 221 C273.9104303 221.90572754 273.8208606 222.81145508 273.72857666 223.74462891 C255.73879159 405.26120841 255.73879159 405.26120841 211 450 C210.01 450 209.02 450 208 450 C207.90501221 449.26064209 207.81002441 448.52128418 207.7121582 447.75952148 C203.84087811 415.77310988 203.84087811 415.77310988 185.27514648 390.37597656 C181.54768702 387.54053974 177.4979776 385.40217842 173.3515625 383.24609375 C172.52006683 382.81175018 171.68857117 382.37740662 170.83187866 381.92990112 C161.95626303 377.36179804 152.83664088 373.45613085 143.625 369.625 C141.87948748 368.89088276 140.13429353 368.15600764 138.3894043 367.42041016 C130.41641286 364.06564438 122.42565121 360.75540783 114.41796875 357.484375 C113.76074829 357.21519257 113.10352783 356.94601013 112.4263916 356.66867065 C109.42909589 355.44135664 106.42929389 354.22161821 103.42236328 353.01806641 C85.35973078 345.67506455 85.35973078 345.67506455 78.37426758 339.78662109 C75.96253668 337.59915039 75.96253668 337.59915039 72 338 C71.73316406 338.55187988 71.46632813 339.10375977 71.19140625 339.67236328 C69.86731499 342.25922517 68.42013644 344.74264823 66.9375 347.2421875 C66.31375488 348.29470703 65.69000977 349.34722656 65.04736328 350.43164062 C64.36500206 351.5794825 63.68254514 352.72726748 63 353.875 C62.2953843 355.06183361 61.59079494 356.24868285 60.88623047 357.43554688 C55.32116872 366.80351748 49.72785501 376.15459512 44.125 385.5 C43.73119141 386.1572406 43.33738281 386.8144812 42.93164062 387.49163818 C41.81206534 389.35953093 40.69139823 391.2267635 39.5703125 393.09375 C38.60762451 394.69766602 38.60762451 394.69766602 37.62548828 396.33398438 C36.45824121 398.24842386 35.2437591 400.13436135 34 402 C30.74900442 401.42614041 29.21565729 400.56073179 27.01171875 398.12109375 C26.47353516 397.53336182 25.93535156 396.94562988 25.38085938 396.34008789 C24.82205078 395.71223389 24.26324219 395.08437988 23.6875 394.4375 C23.10935547 393.79997803 22.53121094 393.16245605 21.93554688 392.50561523 C20.28213341 390.67760764 18.64024763 388.83981548 17 387 C16.26394531 386.18789063 15.52789063 385.37578125 14.76953125 384.5390625 C11.20013211 380.55205154 8.07544473 376.37536715 5 372 C5.49290527 371.61779297 5.98581055 371.23558594 6.49365234 370.84179688 C30.02456755 353.22937086 30.02456755 353.22937086 51.640625 333.40234375 C53 332 53 332 55.3125 330.125 C57.17123672 327.78436857 57.30386294 326.74985484 57.75390625 323.8671875 C58.8618902 318.57742354 61.34070329 315.19598436 64.625 311 C71.57396052 301.62379107 77.00989856 291.75106798 80.3984375 280.5390625 C83.02838876 271.87955981 85.42628524 266.77008772 92.52612305 261.02758789 C101.30792963 253.74675686 105.40091556 242.0639356 107 231 C107.71611548 222.60833689 107.93637337 212.40791482 102.74609375 205.27734375 C99.01963799 201.79457992 94.84438684 200.91876302 90 200 C90.58931772 196.64825544 91.69613428 194.91304802 94 192.4375 C97.04695631 189.14883802 97.92816174 187.02369525 98.25 182.4375 C98.1675 181.303125 98.085 180.16875 98 179 C93.72222644 176.14815096 89.31381742 175.61266648 84.3125 174.625 C82.67776733 174.30063965 82.67776733 174.30063965 81.01000977 173.96972656 C71.85829552 172.22410163 62.67848178 170.90534564 53.4375 169.75 C52.14432861 169.58709473 50.85115723 169.42418945 49.51879883 169.25634766 C31.47881791 167.09508697 13.58783621 166.76040572 -4.5625 166.75 C-5.7831012 166.74899292 -7.00370239 166.74798584 -8.2612915 166.74694824 C-27.03381444 166.75741042 -45.40034439 167.32267164 -64 170 C-65.69406982 170.24073242 -65.69406982 170.24073242 -67.42236328 170.48632812 C-74.63776686 171.53546735 -81.8206762 172.7296221 -89 174 C-90.66531506 174.28414458 -92.33067676 174.56801596 -93.99609375 174.8515625 C-101.35684441 175.92751473 -101.35684441 175.92751473 -108 179 C-108.91093658 183.9595436 -107.80767451 186.74585405 -105.125 190.8125 C-103.51359743 193.07391279 -101.96508202 195.03491798 -100 197 C-100 197.99 -100 198.98 -100 200 C-100.67546875 200.15855469 -101.3509375 200.31710937 -102.046875 200.48046875 C-107.75734983 201.95552712 -107.75734983 201.95552712 -112.5 205.3125 C-118.21098504 215.54468153 -117.53599618 229.51974626 -114.5637207 240.60986328 C-111.65775577 249.96106585 -107.47138189 257.46716052 -99.5625 263.375 C-93.49956961 268.45141969 -91.63005423 275.61126984 -88.96484375 282.80859375 C-84.9654746 293.6043025 -79.83514493 303.55716627 -72.76171875 312.66796875 C-69.90437491 316.45030638 -67.85774138 319.42178392 -67.4375 324.1875 C-65.34556709 334.52713563 -52.78581264 341.79093684 -45 348 C-43.74440486 349.03180239 -42.49060258 350.06578906 -41.23828125 351.1015625 C-32.73788808 358.11381769 -24.06064535 364.72833455 -15 371 C-16.50070666 376.07563846 -19.59827467 379.10720144 -23.1875 382.8125 C-24.36805181 384.05516905 -25.54774603 385.2986534 -26.7265625 386.54296875 C-27.2927832 387.13770996 -27.85900391 387.73245117 -28.44238281 388.34521484 C-30.36988729 390.39296177 -32.22585292 392.49561223 -34.0625 394.625 C-36.27813957 397.19337821 -38.5506402 399.64861459 -41 402 C-44.67708071 400.54952184 -45.99605687 398.8737958 -47.92578125 395.46875 C-48.46775146 394.52531738 -49.00972168 393.58188477 -49.56811523 392.60986328 C-50.43158569 391.07048096 -50.43158569 391.07048096 -51.3125 389.5 C-51.91843994 388.44151855 -52.52437988 387.38303711 -53.14868164 386.29248047 C-54.77365411 383.45216096 -56.38991359 380.60710883 -58.00231934 377.75964355 C-60.32218086 373.66802433 -62.6575853 369.58530263 -64.9987793 365.50585938 C-66.25815848 363.30967717 -67.51252205 361.11060844 -68.76098633 358.90820312 C-72.13013972 353.01835487 -75.6914667 347.42175964 -79.71704102 341.95654297 C-81 340 -81 340 -81 338 C-84.66742056 338.54567157 -86.92191383 339.40722042 -89.875 341.625 C-100.54258933 349.04378167 -113.38338343 353.47533479 -125.40270996 358.25286865 C-175.12413677 374.91589394 -175.12413677 374.91589394 -209.6875 410.5625 C-214.48608674 422.87466334 -216.55376395 435.92678729 -218 449 C-219.32 449 -220.64 449 -222 449 C-234.44230102 427.15278321 -243.74324389 403.69689003 -252 380 C-252.34482422 379.02015137 -252.68964844 378.04030273 -253.04492188 377.03076172 C-268.18041133 333.54942139 -276.66658002 287.63080379 -282 242 C-282.07885437 241.32578003 -282.15770874 240.65156006 -282.23895264 239.95690918 C-283.35435624 230.31937078 -284.23965425 220.67154986 -285 211 C-285.10441406 209.72656738 -285.20882812 208.45313477 -285.31640625 207.14111328 C-287.20283056 182.99667303 -287.18400421 158.82730062 -287.1875 134.625 C-287.18802242 133.79881416 -287.18854485 132.97262833 -287.1890831 132.12140656 C-287.19186684 127.30495256 -287.18795757 122.48858525 -287.1739502 117.67214966 C-287.17000865 116.18415641 -287.16750195 114.69615856 -287.16653442 113.2081604 C-287.15911918 106.07683052 -287.13761201 99.05716616 -286 92 C-285.21093262 91.90090332 -284.42186523 91.80180664 -283.60888672 91.69970703 C-197.48228337 80.60123401 -110.60196339 54.7753353 -13.92578125 2.625 C-13.32556152 2.28130371 -12.7253418 1.93760742 -12.10693359 1.58349609 C-10.58239847 0.70819266 -9.06980354 -0.18782368 -7.55859375 -1.0859375 C-4.2053052 -2.28390623 -3.17725042 -1.46328142 0 0 Z " fill="#FEFEFE" transform="translate(517,80)"/>
<path d="M0 0 C0.68998581 0.28386063 1.37997162 0.56772125 2.09086609 0.86018372 C4.36090714 1.79896557 6.6195467 2.76238947 8.87890625 3.7265625 C10.49594629 4.40167126 12.11363867 5.07521932 13.73193359 5.74731445 C17.17659384 7.18154321 20.61647873 8.62649668 24.05322266 10.07958984 C29.51997336 12.38927925 35.00123206 14.66315459 40.484375 16.93359375 C59.37743083 24.76864415 78.25228465 32.64899635 96.84765625 41.171875 C99.21228707 42.24735468 101.58908705 43.28771935 103.97265625 44.3203125 C111.26972039 47.57715862 116.04994824 50.90478661 119.44140625 58.3515625 C120.39372611 61.20852208 120.63651723 63.18633291 120.69140625 66.1640625 C120.7171875 66.99550781 120.74296875 67.82695312 120.76953125 68.68359375 C119.93785336 75.44592711 115.31762102 80.1778625 111.06640625 85.1640625 C105.35663471 91.96602704 99.87524347 98.90199722 94.52978516 105.9934082 C94.02108887 106.66718506 93.51239258 107.34096191 92.98828125 108.03515625 C92.54323242 108.62868896 92.09818359 109.22222168 91.63964844 109.83374023 C90.44140625 111.3515625 90.44140625 111.3515625 88.44140625 113.3515625 C81.11931021 113.54190327 73.84082538 111.6760202 66.75390625 110.0390625 C56.78416694 107.84668002 46.81472529 106.33630746 36.69140625 105.1015625 C36.01880768 105.01893158 35.34620911 104.93630066 34.65322876 104.85116577 C30.25292148 104.31536678 25.8490986 103.82238488 21.44140625 103.3515625 C20.49579834 103.24553711 19.55019043 103.13951172 18.57592773 103.03027344 C8.41737777 102.02299296 -1.79777083 102.10776861 -11.99609375 102.1015625 C-12.99480499 102.10088776 -13.99351624 102.10021301 -15.02249146 102.09951782 C-45.14406556 102.13172504 -75.36663244 105.37630189 -104.62109375 112.78320312 C-107.70992241 113.38084218 -110.42111762 113.58529283 -113.55859375 113.3515625 C-115.76171875 111.40234375 -115.76171875 111.40234375 -117.80859375 108.6640625 C-118.57945312 107.65601563 -119.3503125 106.64796875 -120.14453125 105.609375 C-120.54124023 105.07344727 -120.93794922 104.53751953 -121.34667969 103.98535156 C-122.93358339 101.84603658 -124.56640774 99.74282676 -126.19824219 97.63769531 C-127.44865273 96.01957511 -128.68729474 94.39288273 -129.92578125 92.765625 C-131.76997312 90.35485251 -133.65437903 87.98231059 -135.56640625 85.625 C-136.06543457 85.00536377 -136.56446289 84.38572754 -137.07861328 83.74731445 C-138.03880284 82.55792755 -139.0055684 81.37380819 -139.97998047 80.19604492 C-144.51765331 74.55021934 -146.18092912 69.57065284 -145.55859375 62.3515625 C-143.91525023 56.06607341 -141.36516343 51.09278124 -135.6875 47.5703125 C-131.32414588 45.46749124 -126.9535493 43.38753841 -122.55859375 41.3515625 C-121.65157715 40.92439941 -120.74456055 40.49723633 -119.81005859 40.05712891 C-100.41770317 30.95776347 -80.57062463 22.99391452 -60.68847656 15.03833008 C-59.6231369 14.61170578 -58.55779724 14.18508148 -57.46017456 13.74552917 C-55.33359978 12.89507152 -53.20610207 12.04691786 -51.07766724 11.2011261 C-45.66808047 9.04222326 -40.29792151 6.82068627 -34.96337891 4.48193359 C-33.35521049 3.78465401 -33.35521049 3.78465401 -31.71455383 3.07328796 C-29.69083314 2.19173696 -27.67330042 1.29577491 -25.66374207 0.38240051 C-16.60171265 -3.54610772 -9.073943 -3.95787364 0 0 Z " fill="#000000" transform="translate(524.55859375,126.6484375)"/>
<path d="M0 0 C13.53 0 27.06 0 41 0 C43.94957566 5.89915132 46.61780986 11.23772222 48.91796875 17.3046875 C49.44698338 18.68613113 49.97603805 20.06755943 50.50512695 21.44897461 C50.91536606 22.52862991 50.91536606 22.52862991 51.33389282 23.63009644 C57.98732215 41.12796618 65.04288149 58.45154989 72.22143555 75.73974609 C72.9666608 77.54393429 73.71186061 79.348133 74.45703125 81.15234375 C74.80118073 81.97477066 75.1453302 82.79719757 75.49990845 83.64454651 C77.05263664 87.41122163 78.41868443 90.93690474 79 95 C79.66 95 80.32 95 81 95 C81.34546875 93.85917969 81.6909375 92.71835937 82.046875 91.54296875 C84.31817413 84.73833655 87.31566232 78.23292869 90.20834351 71.67642212 C97.21653473 55.77212127 103.7871086 39.73121124 110.03808594 23.51489258 C117.95792136 3.04207864 117.95792136 3.04207864 121 0 C123.8843382 -0.08865208 126.74462158 -0.11521296 129.62890625 -0.09765625 C130.92525246 -0.09553383 130.92525246 -0.09553383 132.24778748 -0.09336853 C135.01939292 -0.08775239 137.7909188 -0.07519719 140.5625 -0.0625 C142.4368478 -0.05748708 144.31119685 -0.05292381 146.18554688 -0.04882812 C150.79039544 -0.03777772 155.39518421 -0.0205023 160 0 C161.36667613 2.73335225 161.12908763 4.89864891 161.13371277 7.95959473 C161.14011024 9.86518913 161.14011024 9.86518913 161.14663696 11.8092804 C161.14628742 13.22506717 161.14582588 14.64085392 161.14526367 16.05664062 C161.14825441 17.54135727 161.15165674 19.02607313 161.15544128 20.51078796 C161.16429318 24.54993534 161.16661987 28.58906156 161.16725707 32.6282177 C161.16820508 35.99575161 161.17188205 39.36328055 161.17542917 42.73081255 C161.18357789 50.67226951 161.18601298 58.61371512 161.18530273 66.55517578 C161.1847015 74.75879885 161.19526151 82.96235625 161.2110464 91.1659627 C161.22410136 98.20037411 161.22948751 105.23476401 161.22884732 112.26918745 C161.22859178 116.47451044 161.23147416 120.67977509 161.24202538 124.88508606 C161.25167233 128.83801206 161.25180911 132.79082351 161.24450874 136.74375343 C161.24345871 138.19744343 161.24585041 139.65114043 161.2518692 141.10481834 C161.25953278 143.08333308 161.25377067 145.06188648 161.24723816 147.04040527 C161.24778293 148.14948997 161.24832769 149.25857468 161.24888897 150.40126801 C161 153 161 153 159 155 C155.94311523 155.24291992 155.94311523 155.24291992 152.05859375 155.23046875 C151.37571793 155.23001053 150.6928421 155.22955231 149.98927307 155.2290802 C148.54597231 155.22605891 147.10267478 155.21817622 145.65942383 155.20581055 C143.44275447 155.1875433 141.22650242 155.18530093 139.00976562 155.18554688 C128.14742468 155.14742468 128.14742468 155.14742468 127 154 C126.87466913 151.01776826 126.81388422 148.05758366 126.79467773 145.07397461 C126.78477814 144.13748581 126.77487854 143.20099701 126.76467896 142.23612976 C126.73296247 139.12489392 126.70826659 136.01364278 126.68359375 132.90234375 C126.66303297 130.75142508 126.64203675 128.60051054 126.62062073 126.44960022 C126.5653095 120.77622811 126.51594028 115.10281899 126.46777344 109.42938232 C126.41762433 103.64494516 126.36190394 97.86056204 126.30664062 92.07617188 C126.19894842 80.71749402 126.09752818 69.35876935 126 58 C123.70456783 63.53336655 121.40940538 69.06684488 119.11447144 74.60041809 C118.33699475 76.4749794 117.55944983 78.34951242 116.78182983 80.22401428 C111.37087301 93.26763806 105.97336291 106.31663329 100.60882568 119.37942505 C94.50252247 134.22346028 94.50252247 134.22346028 91 137 C87.21951311 137.66466702 83.39494733 137.50937602 79.5625 137.5 C78.51255859 137.52835938 77.46261719 137.55671875 76.38085938 137.5859375 C75.36958984 137.58851563 74.35832031 137.59109375 73.31640625 137.59375 C72.39287354 137.60083984 71.46934082 137.60792969 70.51782227 137.61523438 C66.85905037 136.72120692 66.00813066 135.15746557 64 132 C62.56082997 129.15714209 61.31894434 126.24907121 60.09375 123.30859375 C59.72834106 122.44984146 59.36293213 121.59108917 58.9864502 120.70631409 C57.81685535 117.95312815 56.65815747 115.19551391 55.5 112.4375 C54.75334317 110.67351514 54.00595256 108.90984068 53.2578125 107.14648438 C52.10722824 104.43329482 50.95761369 101.71971843 49.8112793 99.00473022 C46.37097579 90.85697045 42.89262571 82.72577656 39.40625 74.59765625 C39.13530014 73.9659445 38.86435028 73.33423275 38.58518982 72.68337822 C37.05747009 69.12196144 35.52904065 65.56084984 34 62 C33.99191315 63.13561371 33.98382629 64.27122742 33.97549438 65.44125366 C33.89813006 76.12465336 33.81041569 86.80792417 33.71247292 97.49115562 C33.66245044 102.98398674 33.61612107 108.47679805 33.578125 113.96972656 C33.54134721 119.26714611 33.49500806 124.56440239 33.44193649 129.86168289 C33.42335251 131.88632987 33.40825949 133.91101189 33.39665604 135.93571091 C33.37986187 138.76378988 33.35084394 141.59149162 33.31884766 144.41943359 C33.31668747 145.26316025 33.31452728 146.1068869 33.31230164 146.97618103 C33.22810432 152.77189568 33.22810432 152.77189568 31 155 C28.03491211 155.24291992 28.03491211 155.24291992 24.27734375 155.23046875 C23.61666397 155.23001053 22.95598419 155.22955231 22.27528381 155.2290802 C20.87906091 155.22605921 19.48284133 155.21817742 18.08666992 155.20581055 C15.94242502 155.18754196 13.79861151 155.18530094 11.65429688 155.18554688 C1.14743212 155.14743212 1.14743212 155.14743212 0 154 C-0.096708 152.01305149 -0.12187052 150.02260987 -0.12025452 148.03330994 C-0.12162918 146.73615555 -0.12300385 145.43900116 -0.12442017 144.10253906 C-0.12088055 142.6516111 -0.11724573 141.20068337 -0.11352539 139.74975586 C-0.11324353 138.23238629 -0.11340123 136.71501658 -0.1139679 135.19764709 C-0.11425591 131.06559484 -0.10835858 126.93357137 -0.10139394 122.80152583 C-0.09516102 118.48801108 -0.09455665 114.17449573 -0.09336853 109.86097717 C-0.09025503 101.68699883 -0.08204139 93.51303379 -0.07201904 85.33906132 C-0.06085848 76.03571031 -0.0553476 66.73235868 -0.05032361 57.42900264 C-0.03985879 38.28599268 -0.02151308 19.14300096 0 0 Z " fill="#020202" transform="translate(852,806)"/>
<path d="M0 0 C5.61089109 0.46142196 10.63906882 1.66660008 16 3.3125 C23.42504719 5.48421534 30.86846963 6.99559081 38.5 8.25 C39.985 8.49423706 39.985 8.49423706 41.5 8.7434082 C44.3300559 9.19107246 47.16187599 9.6069151 50 10 C50.76111084 10.10602539 51.52222168 10.21205078 52.30639648 10.32128906 C83.78685938 14.07753803 115.67264098 10.22431298 146.2265625 2.68310547 C150.14339141 1.71837947 154.04185926 0.78270611 158 0 C159.92510946 1.92510946 159.18672291 5.49685375 159.203125 8.12109375 C159.21013931 8.84814011 159.21715363 9.57518646 159.22438049 10.32426453 C159.24201875 12.69540474 159.24824435 15.06629636 159.25 17.4375 C159.25067474 18.2403241 159.25134949 19.04314819 159.25204468 19.87030029 C159.2363948 31.52580149 158.86122646 42.64739181 156 54 C155.83371094 54.69609375 155.66742187 55.3921875 155.49609375 56.109375 C149.4993803 80.80695039 135.23331447 104.10925272 113.3125 117.6875 C107.15321649 121.16577559 100.84470982 123.29111943 94 125 C93.25363281 125.19207031 92.50726562 125.38414062 91.73828125 125.58203125 C73.51628765 128.36341972 55.39671393 125.38606264 40 115 C35.6975822 111.63980381 31.83381428 107.8780081 28 104 C26.90558594 102.92105469 26.90558594 102.92105469 25.7890625 101.8203125 C3.64338848 78.62425078 -1.22149826 45.01502874 -1.125 14.3125 C-1.12886719 13.03955078 -1.13273437 11.76660156 -1.13671875 10.45507812 C-1.13542969 9.24916016 -1.13414062 8.04324219 -1.1328125 6.80078125 C-1.13168457 5.70934814 -1.13055664 4.61791504 -1.12939453 3.4934082 C-1 1 -1 1 0 0 Z " fill="#FEFEFE" transform="translate(433,283)"/>
<path d="M0 0 C1.86476234 -0.01925285 1.86476234 -0.01925285 3.76719666 -0.03889465 C5.14109902 -0.04707449 6.51500595 -0.05451581 7.88891602 -0.0612793 C8.58264879 -0.06535482 9.27638157 -0.06943035 9.99113655 -0.07362938 C13.68175079 -0.09455206 17.37232746 -0.10881188 21.06298828 -0.11816406 C24.08598559 -0.1269336 27.10850956 -0.14757882 30.13134766 -0.1796875 C78.97880773 -0.68748944 78.97880773 -0.68748944 96.94750977 16.5012207 C107.56599374 29.08541019 110.34066253 45.18762654 109.20532227 61.17700195 C107.60149751 73.23241807 102.608916 85.12147585 93.20532227 93.17700195 C80.85498145 101.6032197 68.30800392 105.38760056 53.30297852 105.2746582 C52.58041367 105.27324326 51.85784882 105.27182831 51.11338806 105.27037048 C48.83148862 105.26482421 46.54969148 105.25228216 44.26782227 105.23950195 C42.70988099 105.23447999 41.15193815 105.22991831 39.59399414 105.22583008 C35.79773145 105.21487245 32.00154414 105.19764568 28.20532227 105.17700195 C28.20976349 105.77390839 28.21420471 106.37081482 28.21878052 106.98580933 C28.26292807 113.18216566 28.29315286 119.37847753 28.31518555 125.57495117 C28.32526118 127.88942275 28.33892201 130.20388154 28.35620117 132.51831055 C28.38038091 135.83946888 28.39178957 139.16045936 28.40063477 142.48168945 C28.41095734 143.52130829 28.42127991 144.56092712 28.43191528 145.63204956 C28.43214188 147.07331711 28.43214188 147.07331711 28.43237305 148.54370117 C28.43681427 149.39197479 28.44125549 150.24024841 28.4458313 151.11422729 C28.20532227 153.17700195 28.20532227 153.17700195 26.20532227 155.17700195 C23.77965107 155.36414182 21.4703456 155.43285473 19.04516602 155.4074707 C18.34009415 155.40701248 17.63502228 155.40655426 16.90858459 155.40608215 C15.41820594 155.40306058 13.92783043 155.39517706 12.4375 155.3828125 C10.14840593 155.36454651 7.859716 155.36230287 5.57055664 155.36254883 C4.12458958 155.35763401 2.67862527 155.35180585 1.23266602 155.3449707 C0.1998777 155.34330147 0.1998777 155.34330147 -0.85377502 155.34159851 C-5.67862274 155.29305695 -5.67862274 155.29305695 -6.79467773 154.17700195 C-6.89355586 152.20502657 -6.92100029 150.22945756 -6.92166138 148.25500488 C-6.9244812 146.96770981 -6.92730103 145.68041473 -6.9302063 144.35411072 C-6.9282617 142.91421495 -6.92621351 141.47431932 -6.92407227 140.03442383 C-6.92542625 138.52852842 -6.92720616 137.02263334 -6.92938232 135.51673889 C-6.93395702 131.41561388 -6.93216695 127.31451391 -6.92900324 123.21338844 C-6.92647982 118.93103592 -6.92881712 114.64868561 -6.9303894 110.36633301 C-6.93221115 103.17349867 -6.92980465 95.98067458 -6.92504883 88.7878418 C-6.9196062 80.45983862 -6.92136885 72.13185991 -6.92687523 63.80385733 C-6.93140621 56.6667235 -6.93205699 49.52959706 -6.92943656 42.39246225 C-6.9278737 38.1240184 -6.92768027 33.85558607 -6.93097305 29.58714294 C-6.93385155 25.57516262 -6.93187648 21.56321399 -6.9260788 17.55123711 C-6.92475108 16.07455434 -6.92514551 14.59786894 -6.92734146 13.12118721 C-6.93005248 11.11379209 -6.92605858 9.10639116 -6.92166138 7.09899902 C-6.92128435 5.97294502 -6.92090733 4.84689102 -6.92051888 3.68671417 C-6.68494382 -1.01147585 -4.13331389 0.03705062 0 0 Z " fill="#000000" transform="translate(591.794677734375,805.822998046875)"/>
<path d="M0 0 C1.6874269 0.00015917 3.37485866 0.00585622 5.06225586 0.01586914 C6.39189613 0.01799156 6.39189613 0.01799156 7.74839783 0.02015686 C10.59133215 0.02577324 13.43418892 0.03832848 16.27709961 0.05102539 C18.19962452 0.05603828 20.12215065 0.06060155 22.04467773 0.06469727 C26.7680151 0.07574798 31.49129419 0.09302356 36.21459961 0.11352539 C38.95580463 6.01258508 41.2782681 11.91709923 43.26147461 18.10961914 C43.54578339 18.98351791 43.83009216 19.85741669 44.12301636 20.75779724 C45.0748381 23.68739471 46.01970471 26.61918713 46.96459961 29.55102539 C47.64694269 31.65614751 48.32973693 33.76112344 49.01293945 35.8659668 C50.54403704 40.58582752 52.0720934 45.30666038 53.59838867 50.02807617 C56.25440447 58.24281572 58.92181634 66.45384338 61.58976746 74.66471291 C64.00738016 82.10565826 66.42348537 89.54709337 68.83959961 96.98852539 C69.100952 97.79340771 69.36230438 98.59829002 69.63157654 99.42756271 C70.40905454 101.82210928 71.18637755 104.21670608 71.96362305 106.61132812 C72.21448166 107.38407483 72.46534027 108.15682154 72.72380066 108.95298481 C73.93949639 112.69950331 75.15271417 116.44679205 76.36047363 120.19587708 C76.81345386 121.60170206 77.26645624 123.0075199 77.71948242 124.41333008 C78.0432914 125.41848301 78.0432914 125.41848301 78.37364197 126.44394207 C79.66227315 130.43415052 80.98238181 134.41234275 82.3269043 138.3840332 C82.62503021 139.27970001 82.92315613 140.17536682 83.23031616 141.09817505 C83.75372447 142.66839997 84.28813169 144.23503032 84.83682251 145.79660034 C86.4071075 150.56317674 86.4071075 150.56317674 85.34985352 153.58569336 C84.97521973 154.08987793 84.60058594 154.5940625 84.21459961 155.11352539 C79.55152947 155.16289818 74.88861088 155.19923166 70.2253418 155.22338867 C68.63840078 155.23345727 67.05147836 155.24711306 65.46459961 155.2644043 C63.18590714 155.2886154 60.90745955 155.29999961 58.62866211 155.30883789 C57.91714996 155.31916046 57.20563782 155.32948303 56.4725647 155.34011841 C54.71828296 155.34051961 52.96463252 155.23554748 51.21459961 155.11352539 C48.6304941 152.52941988 48.26165195 150.37792514 47.26928711 146.86352539 C46.91479492 145.61571289 46.56030273 144.36790039 46.19506836 143.08227539 C45.92315674 142.10581055 45.92315674 142.10581055 45.64575195 141.10961914 C45.09119534 139.11925264 44.5268209 137.13187813 43.96069336 135.14477539 C41.21459961 125.40771037 41.21459961 125.40771037 41.21459961 123.11352539 C24.71459961 123.44352539 8.21459961 123.77352539 -8.78540039 124.11352539 C-11.6641486 133.56528441 -11.6641486 133.56528441 -14.52905273 143.02124023 C-14.88950684 144.19380371 -15.24996094 145.36636719 -15.62133789 146.57446289 C-15.98791504 147.77893066 -16.35449219 148.98339844 -16.73217773 150.22436523 C-17.78540039 153.11352539 -17.78540039 153.11352539 -19.78540039 155.11352539 C-22.29460885 155.28848145 -24.6916498 155.34522108 -27.19946289 155.30883789 C-28.29392227 155.30459305 -28.29392227 155.30459305 -29.41049194 155.30026245 C-31.74396067 155.28905541 -34.07704742 155.26395049 -36.41040039 155.23852539 C-37.99112402 155.22849624 -39.57185366 155.21937028 -41.15258789 155.21118164 C-45.03033953 155.18911444 -48.90780517 155.15458154 -52.78540039 155.11352539 C-54.10859141 151.44803572 -53.44317979 149.19200838 -52.24438477 145.54394531 C-51.87725372 144.40942932 -51.51012268 143.27491333 -51.13186646 142.10601807 C-50.71847015 140.86455017 -50.30507385 139.62308228 -49.87915039 138.34399414 C-49.44624661 137.01891837 -49.01429409 135.69353149 -48.58322144 134.36785889 C-47.40784793 130.76170428 -46.21993475 127.1597909 -45.0298996 123.55845261 C-43.78286265 119.77725966 -42.54740657 115.99229015 -41.3112793 112.20751953 C-39.7572773 107.45179311 -38.20213198 102.69645271 -36.64199829 97.94273376 C-32.84391519 86.36890461 -29.0816703 74.78386068 -25.34008789 63.19165039 C-24.81429037 61.56337335 -24.28847263 59.93510284 -23.76263428 58.30683899 C-21.97752347 52.77862382 -20.19256986 47.25035777 -18.40890503 41.72167587 C-16.97435387 37.27517962 -15.53802652 32.82926588 -14.09888077 28.38425446 C-13.66451682 27.04148019 -13.23085869 25.69847735 -12.79800034 24.35521698 C-4.99706022 0.14986346 -4.99706022 0.14986346 0 0 Z " fill="#010101" transform="translate(376.785400390625,805.886474609375)"/>
<path d="M0 0 C3.05075084 -0.266487 5.89626179 -0.34757146 8.9453125 -0.29296875 C9.8303244 -0.28872391 10.7153363 -0.28447906 11.62716675 -0.28010559 C14.46008445 -0.26328259 17.29229652 -0.22562425 20.125 -0.1875 C22.04295849 -0.17245782 23.96092811 -0.15876861 25.87890625 -0.14648438 C30.58621031 -0.11336727 35.29298544 -0.06156055 40 0 C42.97653819 6.32965215 45.33880896 12.70608356 47.43359375 19.375 C47.74752579 20.3599646 48.06145782 21.3449292 48.38490295 22.35974121 C49.40730481 25.57163651 50.42243308 28.78577989 51.4375 32 C52.15579272 34.26121302 52.87454876 36.52227891 53.59375 38.78320312 C55.40054284 44.46728393 57.20149213 50.15319459 59.00018311 55.83984375 C60.72140485 61.28016955 62.44699206 66.71911071 64.17268372 72.15802002 C65.46281173 76.22511049 66.75061374 80.29290704 68.03344727 84.36230469 C70.73404932 92.91944092 73.46965659 101.4637939 76.25762939 109.99291992 C77.76630668 114.61024245 79.26662505 119.23026581 80.7668457 123.8503418 C81.50098135 126.10256452 82.2393734 128.35340461 82.98217773 130.6027832 C84.01693886 133.73705286 85.03721359 136.87570848 86.0546875 140.015625 C86.52544205 141.42204254 86.52544205 141.42204254 87.00570679 142.85687256 C87.28467804 143.72684875 87.56364929 144.59682495 87.85107422 145.49316406 C88.09832245 146.24664124 88.34557068 147.00011841 88.60031128 147.77642822 C89.07791556 150.43346445 88.66896258 152.40476652 88 155 C83.35532361 155.12359943 78.71160374 155.21433399 74.06567383 155.2746582 C72.48542611 155.2998033 70.90529471 155.33392474 69.32543945 155.37719727 C67.05390768 155.43785708 64.78391256 155.46620678 62.51171875 155.48828125 C61.45219246 155.52699089 61.45219246 155.52699089 60.3712616 155.56648254 C58.36987305 155.56762695 58.36987305 155.56762695 55 155 C52.32195102 151.85575907 51.31240131 148.29933204 50.17578125 144.3671875 C49.86962891 143.31402344 49.56347656 142.26085937 49.24804688 141.17578125 C48.93931641 140.08652344 48.63058594 138.99726562 48.3125 137.875 C47.99216797 136.77800781 47.67183594 135.68101562 47.34179688 134.55078125 C45 126.41191365 45 126.41191365 45 123 C28.17 123 11.34 123 -6 123 C-6.66 126.3 -7.32 129.6 -8 133 C-8.45909652 134.78063551 -8.9426416 136.55557778 -9.47265625 138.31640625 C-9.73240234 139.18201172 -9.99214844 140.04761719 -10.25976562 140.93945312 C-10.52466797 141.80505859 -10.78957031 142.67066406 -11.0625 143.5625 C-11.33126953 144.46291016 -11.60003906 145.36332031 -11.87695312 146.29101562 C-13.86717059 152.86717059 -13.86717059 152.86717059 -15 154 C-17.52094076 154.08847743 -20.01430893 154.11527301 -22.53515625 154.09765625 C-23.66503212 154.09553383 -23.66503212 154.09553383 -24.81773376 154.09336853 C-27.2326956 154.08775376 -29.64756601 154.07519883 -32.0625 154.0625 C-33.69596221 154.0574869 -35.32942586 154.05292366 -36.96289062 154.04882812 C-40.97529585 154.03777954 -44.98763241 154.02050506 -49 154 C-50.26502779 150.20491663 -49.53028575 148.81411067 -48.29125977 145.04077148 C-47.88729477 143.79568817 -47.48332977 142.55060486 -47.06712341 141.26779175 C-46.60868391 139.885515 -46.15010688 138.50328386 -45.69140625 137.12109375 C-45.21636797 135.66767056 -44.74214946 134.21397921 -44.26869202 132.76004028 C-42.97910585 128.80713463 -41.67875165 124.85784633 -40.37647247 120.90910721 C-39.01681022 116.78052651 -37.66658773 112.64886355 -36.31591797 108.51733398 C-34.62629177 103.35048767 -32.93590425 98.18389795 -31.24145508 93.01863098 C-27.45414606 81.47053936 -23.70020009 69.91208454 -19.9726162 58.3445797 C-19.13676101 55.75093568 -18.30022552 53.15751211 -17.4634552 50.56416321 C-14.24837885 40.60049576 -14.24837885 40.60049576 -11.04055786 30.63449097 C-9.796786 26.76562982 -8.5485876 22.8982241 -7.29708672 19.03185654 C-6.8381934 17.61138192 -6.38094919 16.19037335 -5.92546272 14.76880264 C-5.30435283 12.83090347 -4.6770008 10.89500821 -4.04931641 8.95922852 C-3.52502548 7.33211693 -3.52502548 7.33211693 -2.99014282 5.6721344 C-2 3 -2 3 0 0 Z " fill="#010101" transform="translate(747,806)"/>
<path d="M0 0 C1.31070465 0.00303635 1.31070465 0.00303635 2.64788818 0.00613403 C3.56326355 0.00438171 4.47863892 0.00262939 5.42175293 0.00082397 C8.46329617 -0.00359604 11.5047818 -0.00065603 14.54632568 0.00271606 C16.65000418 0.00204307 18.75368261 0.00107308 20.85736084 -0.00018311 C25.27257017 -0.00166028 29.68775932 0.00049511 34.10296631 0.00515747 C39.77625129 0.01085477 45.44948897 0.00757587 51.12277222 0.00158501 C55.46861124 -0.00202007 59.81443896 -0.00088226 64.16027832 0.0017128 C66.25276698 0.00238222 68.34525666 0.00155314 70.43774414 -0.00076675 C73.35677834 -0.00329241 76.27573481 0.00054609 79.19476318 0.00613403 C80.06856628 0.0041098 80.94236938 0.00208557 81.84265137 0 C87.80706333 0.02126621 87.80706333 0.02126621 88.92132568 1.13552856 C89.021261 3.19608167 89.05213474 5.26005446 89.05413818 7.32302856 C89.05542725 8.57857544 89.05671631 9.83412231 89.05804443 11.12771606 C89.05594971 11.78481567 89.05385498 12.44191528 89.05169678 13.118927 C89.04634802 15.12714191 89.05164259 17.13513316 89.05804443 19.14334106 C89.05675537 20.39888794 89.05546631 21.65443481 89.05413818 22.94802856 C89.05301025 24.10947388 89.05188232 25.27091919 89.05072021 26.46755981 C88.92132568 29.13552856 88.92132568 29.13552856 87.92132568 30.13552856 C86.04951628 30.22939237 84.17414508 30.2529666 82.29998779 30.24905396 C81.09881821 30.24897842 79.89764862 30.24890289 78.66007996 30.24882507 C77.35281448 30.24366379 76.04554901 30.2385025 74.69866943 30.23318481 C73.35488436 30.23132055 72.01109861 30.22989669 70.66731262 30.22889709 C67.12450292 30.22507258 63.58173399 30.21524288 60.03894043 30.20419312 C56.42617352 30.19397756 52.81339985 30.18934446 49.20062256 30.18435669 C42.10748755 30.17415074 35.01446461 30.15457907 27.92132568 30.13552856 C27.92132568 40.69552856 27.92132568 51.25552856 27.92132568 62.13552856 C31.80784912 62.123927 35.69437256 62.11232544 39.69866943 62.10037231 C43.44500649 62.09258319 47.19134267 62.08650561 50.93768311 62.08059692 C53.54999187 62.0755548 56.1622978 62.06872131 58.77459717 62.06008911 C62.52012837 62.04801821 66.2656224 62.04229921 70.01116943 62.03787231 C71.18719223 62.03271103 72.36321503 62.02754974 73.57487488 62.02223206 C74.65591995 62.02215652 75.73696503 62.02208099 76.85076904 62.02200317 C77.80785263 62.01978256 78.76493622 62.01756195 79.75102234 62.01527405 C81.92132568 62.13552856 81.92132568 62.13552856 82.92132568 63.13552856 C83.021261 65.19608167 83.05213474 67.26005446 83.05413818 69.32302856 C83.05542725 70.57857544 83.05671631 71.83412231 83.05804443 73.12771606 C83.05594971 73.78481567 83.05385498 74.44191528 83.05169678 75.118927 C83.04634802 77.12714191 83.05164259 79.13513316 83.05804443 81.14334106 C83.05675537 82.39888794 83.05546631 83.65443481 83.05413818 84.94802856 C83.05301025 86.10947388 83.05188232 87.27091919 83.05072021 88.46755981 C82.92132568 91.13552856 82.92132568 91.13552856 81.92132568 92.13552856 C80.23330583 92.2290602 78.54137361 92.25297647 76.85076904 92.24905396 C75.76972397 92.24897842 74.68867889 92.24890289 73.57487488 92.24882507 C71.81084068 92.24108315 71.81084068 92.24108315 70.01116943 92.23318481 C68.81399796 92.23176987 67.61682648 92.23035492 66.38337708 92.22889709 C62.54183502 92.22327836 58.70035026 92.21072267 54.85882568 92.19802856 C52.26182131 92.19301598 49.66481604 92.18845265 47.06781006 92.18435669 C40.68560852 92.1741517 34.30353158 92.15457993 27.92132568 92.13552856 C27.92132568 103.02552856 27.92132568 113.91552856 27.92132568 125.13552856 C48.05132568 125.13552856 68.18132568 125.13552856 88.92132568 125.13552856 C91.09558045 129.48403811 90.10629043 135.35910222 90.10882568 140.13552856 C90.12107178 141.34982544 90.13331787 142.56412231 90.14593506 143.81521606 C90.14786865 144.97279419 90.14980225 146.13037231 90.15179443 147.32302856 C90.15590332 148.38908325 90.16001221 149.45513794 90.16424561 150.55349731 C89.92132568 153.13552856 89.92132568 153.13552856 87.92132568 155.13552856 C84.97953301 155.33435258 82.13185219 155.40818311 79.18890381 155.39431763 C78.28474228 155.39782227 77.38058075 155.4013269 76.44902039 155.40493774 C73.45012816 155.41376479 70.45147045 155.40790247 67.45257568 155.40115356 C65.37514195 155.40249993 63.29770853 155.40444023 61.22027588 155.4069519 C56.86229457 155.40990449 52.50439514 155.4056012 48.14642334 155.39627075 C42.55056491 155.38487617 36.95489832 155.39143492 31.35904694 155.40341568 C27.06805975 155.41063065 22.7771183 155.40834802 18.48612976 155.4031601 C16.42237831 155.40182259 14.35862276 155.40347481 12.2948761 155.4081192 C9.41438744 155.41317846 6.53421273 155.40548266 3.65374756 155.39431763 C2.79446152 155.39836609 1.93517548 155.40241455 1.04985046 155.40658569 C-4.85014653 155.36405635 -4.85014653 155.36405635 -7.07867432 153.13552856 C-7.32756329 150.51838589 -7.32756329 150.51838589 -7.32591248 147.13124084 C-7.33010696 145.85098526 -7.33430145 144.57072968 -7.33862305 143.25167847 C-7.33313916 141.82485887 -7.32745617 140.39804002 -7.32159424 138.97122192 C-7.32266667 137.47503069 -7.32460476 135.97883986 -7.3273468 134.48265076 C-7.33220418 130.4125431 -7.32452869 126.34254466 -7.31439376 122.27245021 C-7.30562917 118.02080195 -7.30737038 113.76915728 -7.30775452 109.51750183 C-7.30681724 102.37770757 -7.29812421 95.23795575 -7.28448486 88.09817505 C-7.26875266 79.83206455 -7.26348693 71.56600054 -7.26422042 63.29987615 C-7.26482981 55.36130878 -7.25973284 47.42275661 -7.2514286 39.4841938 C-7.24788924 36.09943079 -7.24606443 32.71467315 -7.2455349 29.32990837 C-7.24453364 25.34827777 -7.23845489 21.36668652 -7.22836876 17.38506889 C-7.22543697 15.9196751 -7.22421975 14.45427677 -7.2247963 12.98888016 C-7.22528363 10.99686008 -7.21903782 9.00484167 -7.21238708 7.01283264 C-7.21071124 5.8954518 -7.2090354 4.77807096 -7.20730877 3.6268301 C-6.95847249 -1.19245589 -4.16847093 0.01486275 0 0 Z " fill="#010101" transform="translate(18.07867431640625,805.8644714355469)"/>
<path d="M0 0 C8.17876751 6.91111949 14.12728624 15.4184644 16.37109375 26.02734375 C16.38871963 27.69391721 16.39067801 29.36079215 16.37109375 31.02734375 C12.89388116 31.84835856 9.4140183 32.65756317 5.93359375 33.46484375 C4.95970703 33.69494141 3.98582031 33.92503906 2.98242188 34.16210938 C-2.89229028 35.51781218 -8.6230715 36.48700495 -14.62890625 37.02734375 C-15.00402344 36.2075 -15.37914062 35.38765625 -15.765625 34.54296875 C-16.27738281 33.4653125 -16.78914063 32.38765625 -17.31640625 31.27734375 C-18.06470703 29.67632813 -18.06470703 29.67632813 -18.828125 28.04296875 C-21.3875524 23.75689944 -24.1499776 21.61891521 -28.75390625 19.77734375 C-36.96436194 18.18822329 -44.06885118 18.31363249 -51.62890625 22.02734375 C-54.48682597 24.37230352 -55.4561579 25.5090987 -56.62890625 29.02734375 C-56.77176102 30.64819598 -56.84923698 32.27547892 -56.87890625 33.90234375 C-56.91757813 35.16691406 -56.91757813 35.16691406 -56.95703125 36.45703125 C-56.536069 39.75456885 -55.70514923 41.42135977 -53.62890625 44.02734375 C-51.38641544 45.33796841 -49.38967278 46.32027868 -47.00390625 47.27734375 C-46.32094482 47.56544922 -45.6379834 47.85355469 -44.93432617 48.15039062 C-38.36253304 50.86194501 -31.64571545 53.16912168 -24.94140625 55.52734375 C-7.9744805 61.52568813 7.03008528 68.10472079 15.37109375 85.02734375 C15.71140625 85.68863281 16.05171875 86.34992188 16.40234375 87.03125 C20.83065949 97.50749697 19.43491382 111.7894086 15.69140625 122.1953125 C10.44688379 133.44465801 0.98104486 140.6307509 -10.4375 144.9609375 C-29.37376297 151.28847702 -51.30678672 151.8885696 -69.734375 143.63671875 C-81.2375761 137.73764126 -88.67653022 129.77372659 -93.56640625 117.65234375 C-94.48498484 114.51836975 -94.93117108 112.25150194 -94.62890625 109.02734375 C-89.26225244 106.75474249 -83.80552897 105.58359817 -78.12890625 104.33984375 C-77.09636719 104.10201172 -76.06382812 103.86417969 -75 103.61914062 C-73.50146484 103.28946289 -73.50146484 103.28946289 -71.97265625 102.953125 C-70.61430664 102.65015503 -70.61430664 102.65015503 -69.22851562 102.34106445 C-66.38657425 101.99809914 -64.35861107 102.1781612 -61.62890625 103.02734375 C-60.109375 105.35546875 -60.109375 105.35546875 -58.81640625 108.27734375 C-56.06323755 113.75522462 -53.29277762 116.66548646 -47.62890625 119.02734375 C-40.35312606 121.34715772 -31.60119213 120.83596178 -24.5390625 118.0546875 C-21.14024974 116.22669618 -19.5624777 114.35066969 -17.62890625 111.02734375 C-16.40564599 106.32543711 -16.24102196 102.39786823 -17.56640625 97.71484375 C-23.24449508 90.31612195 -32.54949391 88.14315148 -41.05340576 85.40692139 C-78.22321863 73.37493337 -78.22321863 73.37493337 -87.56640625 57.52734375 C-88.28490261 56.04194171 -88.97410527 54.54190373 -89.62890625 53.02734375 C-89.94601563 52.36605469 -90.263125 51.70476563 -90.58984375 51.0234375 C-94.72906459 41.01715593 -93.73091522 28.61165431 -89.8828125 18.703125 C-83.42239346 4.91687254 -72.91857814 -2.46019313 -59.0390625 -8.0078125 C-40.6315414 -13.81929126 -15.6202879 -11.72101841 0 0 Z " fill="#010101" transform="translate(292.62890625,813.97265625)"/>
<path d="M0 0 C0.98438553 -0.00281982 1.96877106 -0.00563965 2.98298645 -0.00854492 C4.07185654 -0.00652069 5.16072662 -0.00449646 6.28259277 -0.00241089 C7.99215401 -0.00503937 7.99215401 -0.00503937 9.73625183 -0.00772095 C13.52450051 -0.01214222 17.31270295 -0.0092005 21.10095215 -0.00582886 C23.72029632 -0.00650182 26.33964042 -0.00747178 28.95898438 -0.00872803 C34.45699571 -0.01054956 39.95499363 -0.00814385 45.45300293 -0.00338745 C51.81787201 0.00205514 58.18270907 0.00029247 64.54757738 -0.00521386 C70.65954547 -0.01029064 76.77149931 -0.00976346 82.88346863 -0.00683212 C85.48951726 -0.00616258 88.0955667 -0.00699222 90.70161438 -0.00931168 C94.33670248 -0.01183658 97.97172811 -0.00799989 101.60681152 -0.00241089 C103.24011665 -0.00544724 103.24011665 -0.00544724 104.90641785 -0.00854492 C105.89080338 -0.0057251 106.8751889 -0.00290527 107.8894043 0 C109.18027073 0.00056554 109.18027073 0.00056554 110.49721527 0.0011425 C112.44470215 0.12698364 112.44470215 0.12698364 113.44470215 1.12698364 C113.54463747 3.18753675 113.57551121 5.25150954 113.57751465 7.31448364 C113.57880371 8.57003052 113.58009277 9.82557739 113.5814209 11.11917114 C113.57932617 11.77627075 113.57723145 12.43337036 113.57507324 13.11038208 C113.56972449 15.11859699 113.57501906 17.12658823 113.5814209 19.13479614 C113.58013184 20.39034302 113.57884277 21.64588989 113.57751465 22.93948364 C113.57638672 24.10092896 113.57525879 25.26237427 113.57409668 26.45901489 C113.44470215 29.12698364 113.44470215 29.12698364 112.44470215 30.12698364 C109.48764894 30.21566663 106.55405159 30.2421866 103.5970459 30.22463989 C102.26740562 30.22251747 102.26740562 30.22251747 100.91090393 30.22035217 C98.06796961 30.2147358 95.22511284 30.20218056 92.38220215 30.18948364 C90.45967724 30.18447075 88.5371511 30.17990748 86.61462402 30.17581177 C81.89128666 30.16476105 77.16800757 30.14748547 72.44470215 30.12698364 C72.44562394 30.76512465 72.44654573 31.40326567 72.44749546 32.06074429 C72.46955076 47.56647693 72.48611373 63.07220414 72.49651432 78.57794857 C72.50167726 86.07631429 72.50871991 93.57466955 72.5201416 101.07302856 C72.53008851 107.60628868 72.53655559 114.13954123 72.53879064 120.67280871 C72.54009774 124.13420171 72.54318351 127.59557307 72.55043221 131.05695915 C72.55844622 134.91485891 72.55869328 138.77273721 72.55822754 142.63064575 C72.56182281 143.78654205 72.56541809 144.94243835 72.56912231 146.13336182 C72.56774765 147.17809158 72.56637299 148.22282135 72.56495667 149.29920959 C72.56587846 150.21270644 72.56680025 151.12620329 72.56774998 152.06738186 C72.44470215 154.12698364 72.44470215 154.12698364 71.44470215 155.12698364 C69.01976842 155.22784018 66.62394553 155.26670696 64.1986084 155.25979614 C63.47229721 155.26075287 62.74598602 155.26170959 61.99766541 155.26269531 C60.45844435 155.26337708 58.91922044 155.26152301 57.38000488 155.25735474 C55.02064557 155.25201407 52.66147731 155.25729579 50.30212402 155.26370239 C48.80928506 155.26304146 47.31644622 155.26175998 45.8236084 155.25979614 C44.76104576 155.26283249 44.76104576 155.26283249 43.67701721 155.26593018 C38.67461644 155.24194079 38.67461644 155.24194079 36.44470215 154.12698364 C36.44470215 113.20698364 36.44470215 72.28698364 36.44470215 30.12698364 C22.91470215 30.12698364 9.38470215 30.12698364 -4.55529785 30.12698364 C-6.3856384 28.29664309 -5.68572583 25.39486373 -5.68811035 22.93948364 C-5.68939941 21.68393677 -5.69068848 20.42838989 -5.6920166 19.13479614 C-5.68992187 18.47769653 -5.68782715 17.82059692 -5.68566895 17.14358521 C-5.68032019 15.1353703 -5.68561476 13.12737905 -5.6920166 11.11917114 C-5.69072754 9.86362427 -5.68943848 8.60807739 -5.68811035 7.31448364 C-5.68641846 5.57231567 -5.68641846 5.57231567 -5.68469238 3.79495239 C-5.47125008 -0.60598621 -3.9661767 0.00173761 0 0 Z " fill="#000000" transform="translate(455.5552978515625,805.8730163574219)"/>
<path d="M0 0 C0.09988492 4.92547891 0.17194055 9.85035096 0.21972656 14.77661133 C0.239675 16.44761442 0.26684401 18.11854924 0.30175781 19.78930664 C0.54005367 31.49734286 0.60130281 43.19633197 -7.95703125 52.3046875 C-12.56070941 56.12494815 -17.79823314 59.07652638 -23 62 C-23.68835938 62.42667969 -24.37671875 62.85335937 -25.0859375 63.29296875 C-27.82939262 64.30636748 -29.22138562 63.91135311 -32 63 C-34.38462266 61.71185277 -36.61350055 60.41215245 -38.875 58.9375 C-39.49415283 58.534104 -40.11330566 58.13070801 -40.7512207 57.71508789 C-48.48329966 52.5179499 -53.39073089 47.12702033 -56 38 C-56.40614148 34.92373386 -56.44493636 31.89315968 -56.43359375 28.79296875 C-56.4388356 27.9457576 -56.44407745 27.09854645 -56.44947815 26.22566223 C-56.45585849 24.45001313 -56.45461352 22.67432153 -56.44604492 20.89868164 C-56.43746736 18.17714428 -56.46645756 15.45766228 -56.49804688 12.73632812 C-56.49965744 11.00520896 -56.49908413 9.27408608 -56.49609375 7.54296875 C-56.50732773 6.73047165 -56.51856171 5.91797455 -56.53013611 5.08085632 C-56.46066713 -0.50839481 -56.46066713 -0.50839481 -54.1496582 -2.97460938 C-38.10124864 -10.62972807 -15.04823454 -8.8557156 0 0 Z " fill="#FCFCFC" transform="translate(642,520)"/>
<path d="M0 0 C4.00178342 -0.07468157 8.00329167 -0.12885021 12.00561523 -0.16479492 C13.36441117 -0.17979409 14.72315941 -0.20020038 16.08178711 -0.22631836 C25.46100188 -0.40198489 31.39187857 -0.16243628 39.1875 5.1875 C43.82877396 9.82877396 46.18805207 14.25130553 46.5 20.875 C46.16231929 27.95540195 44.056667 34.49822643 38.8125 39.4375 C30.8462355 45.19990783 22.5585935 45.4272161 13 45.25 C11.85660156 45.24484375 10.71320312 45.2396875 9.53515625 45.234375 C1.15465561 45.15465561 1.15465561 45.15465561 0 44 C-0.0927833 42.61839885 -0.11747043 41.23211962 -0.11352539 39.84741211 C-0.11341209 38.52615578 -0.11341209 38.52615578 -0.11329651 37.1782074 C-0.10555458 35.74227989 -0.10555458 35.74227989 -0.09765625 34.27734375 C-0.0962413 33.30213272 -0.09482635 32.32692169 -0.09336853 31.32215881 C-0.08775133 28.19390857 -0.07519593 25.06572877 -0.0625 21.9375 C-0.05748722 19.82226666 -0.05292393 17.70703219 -0.04882812 15.59179688 C-0.03777631 10.39450704 -0.02102146 5.19725855 0 0 Z " fill="#FDFDFD" transform="translate(620,837)"/>
<path d="M0 0 C3.465 1.485 3.465 1.485 7 3 C6.45982108 12.9139394 5.50073046 22.64949003 4.07421875 32.48046875 C3.88296984 33.82678047 3.69221216 35.17316205 3.50190735 36.51960754 C3.00361954 40.03573264 2.49878901 43.55088612 1.99243164 47.06585693 C1.49160421 50.55049712 0.99704176 54.03602506 0.50195312 57.52148438 C-0.4734317 64.38089714 -1.45568044 71.23931177 -2.44003296 78.09744263 C-3.29811963 84.077674 -4.15322403 90.05833036 -5.0078125 96.0390625 C-5.16904602 97.1669519 -5.33027954 98.29484131 -5.49639893 99.45690918 C-6.56243676 106.91983506 -7.62175824 114.38369814 -8.67784119 121.84803772 C-9.34809255 126.58489321 -10.02029183 131.32147176 -10.69296169 136.05798435 C-11.1795118 139.48482032 -11.66496119 142.91180579 -12.14819336 146.33911133 C-16.30030288 175.77685192 -16.30030288 175.77685192 -19 190 C-22.91211733 188.84414715 -25.8745041 187.64465038 -29 185 C-27.08731468 169.55827529 -24.84720114 154.18728677 -22.38522339 138.82406616 C-21.79301008 135.12837361 -21.20474581 131.43206983 -20.61743164 127.7355957 C-19.80563486 122.62710115 -18.99262576 117.51880204 -18.17871094 112.41064453 C-16.58106024 102.37541126 -15.00062848 92.33749075 -13.42565918 82.29867554 C-13.1011451 80.2304562 -12.77635826 78.16227965 -12.45129395 76.09414673 C-10.52588384 63.84295635 -8.62651747 51.58809852 -6.7578125 39.328125 C-6.57309891 38.1184053 -6.38838531 36.90868561 -6.19807434 35.66230774 C-5.30281048 29.79854057 -4.41084104 23.93431213 -3.52514648 18.0690918 C-3.20570507 15.97182132 -2.88613224 13.87457086 -2.56640625 11.77734375 C-2.42200104 10.81229919 -2.27759583 9.84725464 -2.1288147 8.85296631 C-1.99421844 7.97457092 -1.85962219 7.09617554 -1.72094727 6.19116211 C-1.54729393 5.04290199 -1.54729393 5.04290199 -1.37013245 3.8714447 C-1 2 -1 2 0 0 Z " fill="#F8F8F8" transform="translate(492,499)"/>
<path d="M0 0 C1.5588385 5.05000875 2.55945055 10.01270288 3.26171875 15.25390625 C3.37269897 16.04923767 3.4836792 16.84456909 3.59802246 17.66400146 C3.83837922 19.38807829 4.07665935 21.11244564 4.31307983 22.83706665 C4.96690058 27.59627845 5.64063119 32.35268326 6.3125 37.109375 C6.45213669 38.10008499 6.59177338 39.09079498 6.73564148 40.11152649 C8.15970325 50.18765544 9.65570945 60.252228 11.1875 70.3125 C11.39437943 71.67140854 11.39437943 71.67140854 11.60543823 73.05776978 C14.56826744 92.46854158 17.65869792 111.85936162 20.75 131.25 C20.86984127 132.00189732 20.98968254 132.75379463 21.11315536 133.52847672 C21.9228787 138.60776911 22.73426188 143.68679417 23.546875 148.765625 C23.71059318 149.78974519 23.71059318 149.78974519 23.87761879 150.83455467 C24.89479107 157.19355264 25.91653836 163.55131935 26.99414062 169.90039062 C27.13781067 170.74696228 27.28148071 171.59353394 27.42950439 172.46575928 C27.6833522 173.95025008 27.9401525 175.43424121 28.2008667 176.9175415 C28.7358039 180.03074639 29 182.81996466 29 186 C22.375 190 22.375 190 19 190 C16.65341668 174.33530166 14.32255684 158.66827805 12 143 C11.89715195 142.30624268 11.79430389 141.61248535 11.68833923 140.89770508 C6.6332715 106.79374621 1.5901896 72.68743022 -3.16018677 38.53945923 C-3.50868903 36.03499881 -3.8586588 33.53074211 -4.21017456 31.02670288 C-4.69076768 27.59660726 -5.16486981 24.165683 -5.63671875 20.734375 C-5.77676331 19.74006973 -5.91680786 18.74576447 -6.06109619 17.72132874 C-7.39036253 7.92909171 -7.39036253 7.92909171 -7 3 C-4.60259082 1.04421883 -3.12413392 0 0 0 Z " fill="#F8F8F8" transform="translate(532,499)"/>
<path d="M0 0 C1.11785889 -0.00315216 2.23571777 -0.00630432 3.38745117 -0.009552 C5.21240112 -0.00651566 5.21240112 -0.00651566 7.07421875 -0.00341797 C8.31341064 -0.00437469 9.55260254 -0.00533142 10.8293457 -0.00631714 C13.45560156 -0.00699921 16.08176508 -0.00564085 18.70800781 -0.00097656 C22.08100589 0.00472073 25.4539244 0.00144151 28.82691956 -0.00454903 C32.03435552 -0.00902317 35.24178175 -0.00589429 38.44921875 -0.00341797 C39.66585205 -0.0054422 40.88248535 -0.00746643 42.13598633 -0.009552 C43.81277466 -0.00482376 43.81277466 -0.00482376 45.5234375 0 C46.51303467 0.00079559 47.50263184 0.00159119 48.5222168 0.00241089 C50.76171875 0.12939453 50.76171875 0.12939453 51.76171875 1.12939453 C51.86143661 3.04397735 51.89252464 4.9622177 51.89453125 6.87939453 C51.89646484 8.62736328 51.89646484 8.62736328 51.8984375 10.41064453 C51.89457031 11.63783203 51.89070313 12.86501953 51.88671875 14.12939453 C51.89251953 15.97017578 51.89251953 15.97017578 51.8984375 17.84814453 C51.89714844 19.01345703 51.89585937 20.17876953 51.89453125 21.37939453 C51.89340332 22.45705078 51.89227539 23.53470703 51.89111328 24.64501953 C51.76171875 27.12939453 51.76171875 27.12939453 50.76171875 28.12939453 C49.0178934 28.22827245 47.27006332 28.25738485 45.5234375 28.25878906 C44.40557861 28.26194122 43.28771973 28.26509338 42.13598633 28.26834106 C40.91935303 28.26631683 39.70271973 28.2642926 38.44921875 28.26220703 C37.21002686 28.26316376 35.97083496 28.26412048 34.6940918 28.2651062 C32.06783594 28.26578827 29.44167242 28.26442991 26.81542969 28.25976562 C23.44243161 28.25406834 20.0695131 28.25734755 16.69651794 28.26333809 C13.48908198 28.26781223 10.28165575 28.26468335 7.07421875 28.26220703 C5.85758545 28.26423126 4.64095215 28.26625549 3.38745117 28.26834106 C1.71066284 28.26361282 1.71066284 28.26361282 0 28.25878906 C-0.98959717 28.25799347 -1.97919434 28.25719788 -2.9987793 28.25637817 C-5.23828125 28.12939453 -5.23828125 28.12939453 -6.23828125 27.12939453 C-6.33799911 25.21481171 -6.36908714 23.29657136 -6.37109375 21.37939453 C-6.37238281 20.21408203 -6.37367187 19.04876953 -6.375 17.84814453 C-6.37113281 16.62095703 -6.36726563 15.39376953 -6.36328125 14.12939453 C-6.36714844 12.90220703 -6.37101562 11.67501953 -6.375 10.41064453 C-6.37371094 9.24533203 -6.37242188 8.08001953 -6.37109375 6.87939453 C-6.36996582 5.80173828 -6.36883789 4.72408203 -6.36767578 3.61376953 C-6.13351988 -0.88202369 -3.98221498 0.00320153 0 0 Z " fill="#000000" transform="translate(129.23828125,877.87060546875)"/>
<path d="M0 0 C4.44734895 3.12149609 4.44734895 3.12149609 5.09765625 6.26171875 C5.11223159 15.24012815 2.59528094 24.24821391 -3.3359375 31.16796875 C-8.16293322 35.38878361 -12.5327985 36.94983783 -18.9453125 36.5859375 C-24.55068556 35.60591312 -28.81797321 32.53698102 -32.26953125 27.98046875 C-36.34609404 21.05180526 -37.80375576 12.05026839 -36.3359375 4.16796875 C-28.37097094 -5.6010287 -10.56116148 -5.49096244 0 0 Z " fill="#FCFCFC" transform="translate(528.3359375,171.83203125)"/>
<path d="M0 0 C2 1 2 1 2.80323792 3.00930786 C3.06225388 3.89198334 3.32126984 4.77465881 3.58813477 5.68408203 C3.88506729 6.68247101 4.18199982 7.68085999 4.4879303 8.70950317 C4.95990089 10.34216629 4.95990089 10.34216629 5.44140625 12.0078125 C5.93301491 13.67878494 5.93301491 13.67878494 6.43455505 15.3835144 C7.12833383 17.74806854 7.81824808 20.11375939 8.50463867 22.48046875 C9.55275391 26.0914229 10.61421378 29.69824448 11.67773438 33.3046875 C12.3497612 35.60132772 13.02101013 37.89819574 13.69140625 40.1953125 C14.00807755 41.27160919 14.32474884 42.34790588 14.65101624 43.45681763 C15.09168678 44.98277054 15.09168678 44.98277054 15.54125977 46.53955078 C15.79948013 47.42699982 16.0577005 48.31444885 16.32374573 49.22879028 C17.10718494 52.43923115 17.532652 55.72856402 18 59 C6.45 59 -5.1 59 -17 59 C-11.78962867 39.17793516 -6.03848639 19.58260126 0 0 Z " fill="#FBFCFC" transform="translate(392,843)"/>
<path d="M0 0 C2.9282667 2.9282667 3.54560938 6.56876564 4.6796875 10.453125 C4.93372345 11.30493347 5.1877594 12.15674194 5.44949341 13.03436279 C6.2640177 15.77116192 7.06952694 18.51052499 7.875 21.25 C8.4095845 23.0496491 8.94473468 24.84913028 9.48046875 26.6484375 C10.76512743 30.97061476 12.03816366 35.29607705 13.30407715 39.6237793 C13.95753342 41.85499835 14.61576612 44.08476255 15.27441406 46.31445312 C15.64018555 47.56677734 16.00595703 48.81910156 16.3828125 50.109375 C16.69879395 51.18670898 17.01477539 52.26404297 17.34033203 53.37402344 C18 56 18 56 18 59 C6.45 59 -5.1 59 -17 59 C-13.52427633 45.50335874 -9.73344036 32.14785101 -5.6875 18.8125 C-5.13185478 16.97209777 -4.57651494 15.13160332 -4.02148438 13.29101562 C-2.68448689 8.85961223 -1.34343575 4.42945559 0 0 Z " fill="#FBFBFB" transform="translate(766,843)"/>
</svg>
